<?xml version="1.0" encoding="utf-8"?>
<!-- Generator: Adobe Illustrator 16.0.0, SVG Export Plug-In . SVG Version: 6.00 Build 0)  -->
<!DOCTYPE svg PUBLIC "-//W3C//DTD SVG 1.1//EN" "http://www.w3.org/Graphics/SVG/1.1/DTD/svg11.dtd">
<svg version="1.1" id="Layer_1" xmlns="http://www.w3.org/2000/svg" xmlns:xlink="http://www.w3.org/1999/xlink" x="0px" y="0px"
	 width="24px" height="24px" viewBox="0 0 24 24" enable-background="new 0 0 24 24" xml:space="preserve">
<path fill="none" d="M0,0h24v24H0V0z"/>
<path fill="#A1A1A1" d="M9.171,7.757L7.757,9.171L10.586,12l-2.829,2.828l1.414,1.414L12,13.414l2.828,2.828l1.414-1.414L13.414,12
	l2.828-2.829l-1.414-1.414L12,10.586L9.171,7.757z M4.929,4.929c-3.903,3.903-3.903,10.239,0,14.143
	c3.903,3.902,10.239,3.903,14.143,0c3.902-3.903,3.902-10.239,0-14.143C15.168,1.025,8.832,1.026,4.929,4.929z M17.657,17.657
	c-3.119,3.118-8.196,3.118-11.314,0c-3.119-3.119-3.119-8.196,0-11.314c3.118-3.119,8.195-3.119,11.314,0
	C20.775,9.461,20.775,14.538,17.657,17.657z"/>
</svg>
