<svg fill="#337ab7" xmlns="http://www.w3.org/2000/svg" width="36" height="36">
  <path d="M28.5 12h-1.75V8.57142857C26.75 3.84 22.83 0 18 0S9.25 3.84 9.25 8.57142857V12H7.5C5.56625 12 4 13.5342857 4 15.4285714v17.1428572C4 34.4657143 5.56625 36 7.5 36h21c1.93375 0 3.5-1.5342857 3.5-3.4285714V15.4285714C32 13.5342857 30.43375 12 28.5 12zm-5.075 0h-10.85V8.57142857C12.575 5.64 15.0075 3.25714287 18 3.25714287c2.9925 0 5.425 2.38285713 5.425 5.3142857V12zM26 25l-8 8-8-8 1.42-1.42L17 29.17V17h2v12.17l5.59-5.58L26 25z"/>
</svg>
