<?xml version="1.0" encoding="UTF-8" standalone="no"?>
<svg width="36px" height="36px" viewBox="0 0 36 36" version="1.1" xmlns="http://www.w3.org/2000/svg" xmlns:xlink="http://www.w3.org/1999/xlink">
    <!-- Generator: Sketch 46.2 (44496) - http://www.bohemiancoding.com/sketch -->
    <title>support-icon</title>
    <desc>Created with Sketch.</desc>
    <defs></defs>
    <g id="Page-1" stroke="none" stroke-width="1" fill="none" fill-rule="evenodd">
        <g id="support-icon" fill="#054A91">
            <path d="M33,24 L25.5772544,24 C23.9016824,22.3350106 20.9107469,22 17.5,22 C12.2532949,22 8,22.7927438 8,28 L21,28 L21,33 L6,33 C4.34314575,33 3,31.6568542 3,30 L3,6 L3,6 C3,4.34314575 4.34314575,3 6,3 L6,3 L30,3 C31.6568542,3 33,4.34314575 33,6 L33,24 Z M18.5,19 C21.5375661,19 24,16.5375661 24,13.5 C24,10.4624339 21.5375661,8 18.5,8 C15.4624339,8 13,10.4624339 13,13.5 C13,16.5375661 15.4624339,19 18.5,19 Z" id="Combined-Shape"></path>
            <path d="M36,28 L36,33.8259958 C36,34.4716981 35.4375,35 34.75,35 L23.25,35 C22.5625,35 22,34.4716981 22,33.8259958 L22,28 C22.234375,28.2421384 22.5,28.4549266 22.7890625,28.6383648 C24.0859375,29.4675052 25.3984375,30.2966457 26.671875,31.1698113 C27.328125,31.6247379 28.140625,32.1823899 28.9921875,32.1823899 L29.0078125,32.1823899 C29.859375,32.1823899 30.671875,31.6247379 31.328125,31.1698113 C32.6015625,30.3039832 33.9140625,29.4675052 35.21875,28.6383648 C35.5,28.4549266 35.765625,28.2421384 36,28 Z M36,25.9389038 C36,26.8139038 35.3515625,26.9140625 34.6640625,27.390625 C33.4453125,28.234375 32.21875,29.078125 31.0078125,29.9296875 C30.5,30.28125 29.640625,31 29.0078125,31 C28.359375,31 27.5,30.28125 26.9921875,29.9296875 C25.78125,29.078125 24.5546875,28.234375 23.34375,27.390625 C22.7890625,27.015625 22,26.7166748 22,26.0057373 C22,25.2401123 22.4140625,25 23.25,25 L34.75,25 C35.4296875,25 36,25.2514038 36,25.9389038 Z" id="envelope"></path>
        </g>
    </g>
</svg>